<svg xmlns="http://www.w3.org/2000/svg" version="1.1" xmlns:xlink="http://www.w3.org/1999/xlink" width="512" height="512" x="0" y="0" viewBox="0 0 512 512" style="enable-background:new 0 0 512 512" xml:space="preserve" class=""><g><path fill="#de4949" d="M256 97.483c-80.756 0-146.221 65.465-146.221 146.221v207.689a7.324 7.324 0 0 0 2.748 5.718l66.589 53.271c4.795 3.836 11.897.422 11.897-5.718V362.773a7.323 7.323 0 0 0-5.007-6.947l-38.726-12.909a7.323 7.323 0 0 1-5.007-6.947v-33.303c0-4.998 4.897-8.527 9.638-6.947l82.836 27.612a7.323 7.323 0 0 1 5.007 6.947v90.474c0 1.137.265 2.258.773 3.275l8.924 17.848c2.699 5.397 10.4 5.397 13.099 0l8.924-17.848a7.329 7.329 0 0 0 .773-3.275v-90.474a7.323 7.323 0 0 1 5.007-6.947l82.836-27.612c4.742-1.581 9.638 1.949 9.638 6.947v33.303a7.323 7.323 0 0 1-5.007 6.947l-38.726 12.909a7.323 7.323 0 0 0-5.007 6.947v141.891c0 6.14 7.102 9.554 11.897 5.718l66.589-53.271a7.322 7.322 0 0 0 2.748-5.718V243.704C402.221 162.948 336.756 97.483 256 97.483z" opacity="1" data-original="#afb4c8" class=""></path><path fill="#a51616" d="M145.021 457.111a7.322 7.322 0 0 1-2.748-5.718V243.704c0-75.264 56.865-137.246 129.974-145.328A147.743 147.743 0 0 0 256 97.483c-80.756 0-146.221 65.465-146.221 146.221v207.689a7.324 7.324 0 0 0 2.748 5.718l66.589 53.271c4.795 3.836 11.897.422 11.897-5.718v-10.759z" opacity="1" data-original="#7e8596" class=""></path><path fill="#ff7474" d="M411.145 259.951h-310.29a7.323 7.323 0 0 1-7.323-7.323v-34.095a7.323 7.323 0 0 1 7.323-7.323h310.291a7.323 7.323 0 0 1 7.323 7.323v34.095a7.325 7.325 0 0 1-7.324 7.323z" opacity="1" data-original="#7d8495" class=""></path><path fill="#bc6767" d="M93.532 218.533v34.095a7.323 7.323 0 0 0 7.323 7.323h41.428v-48.74h-41.428a7.322 7.322 0 0 0-7.323 7.322z" opacity="1" data-original="#636978" class=""></path><path fill="#d4d4d4" d="m348.185 10.598-59.694 119.378-16.244 10.461h-27.819l-20.919-10.461-59.694-119.378C161.38 5.729 164.921 0 170.364 0h171.271c5.444 0 8.985 5.729 6.55 10.598z" opacity="1" data-original="#ff8870" class=""></path><path fill="#bababa" d="m163.818 10.599 59.688 119.377 20.922 10.46v-10.46L179.441.002h-9.074c-5.443 0-8.983 5.729-6.549 10.597z" opacity="1" data-original="#ff583e" class=""></path><path fill="#ff7474" d="M239.753 178.717h32.494l16.247-48.741h-64.988z" opacity="1" data-original="#7d8495" class=""></path><path fill="#bc6767" d="m223.506 129.976 16.247 48.741h20.922l-16.247-48.741z" opacity="1" data-original="#636978" class=""></path><path fill="#bababa" d="M263.846 0v30.158c0 4.341-3.515 7.846-7.846 7.846s-7.846-3.504-7.846-7.846V0zM227.013 39.51a7.772 7.772 0 0 1-3.504.837 7.834 7.834 0 0 1-7.019-4.341L198.487 0h17.543l14.499 28.987a7.841 7.841 0 0 1-3.516 10.523zM313.451 0l-17.94 36.006a7.835 7.835 0 0 1-7.019 4.341 7.772 7.772 0 0 1-3.504-.837 7.841 7.841 0 0 1-3.515-10.524L295.971 0z" opacity="1" data-original="#ff583e" class=""></path></g></svg>